# xmcd
#
# Track frame offsets:
#	150
#	10262
#	19918
#	32022
#	47130
#	58669
#	83686
#	96344
#	118126
#	135482
#	156186
#	168191
#	180743
#	201840
#	214385
#	230728
#	244261
#	256344
#	276136
#	297520
#	319309
#	338580
#
# Disc length: 4762 seconds
# Revision: 1
# Processed by: cddbd v1.5.2PL0 Copyright (c) Steve Scherf et al.
# Submitted via: dBpowerAMP V12.0
#
DISCID=46129816
DTITLE=Various Artist - FAT Favorites 2 ( Disc 2 of 27)
DYEAR=1977
DGENRE=Country
TTITLE0=Buck Owens - Texas Tornado
TTITLE1=Red Steagall - Lone Star Beer and Bob Wills Music
TTITLE2=Chip Taylor - Somebody Shoot Out the Jukebox
TTITLE3=Merle Haggard - That's the Way It Was in '61
TTITLE4=Stoney Edwards - Hank and Lefty Raised My Country Soul
TTITLE5=Head, Hands and Feet (Albert Lee) - Country Boy
TTITLE6=Hank Cochran - He Ain't Country
TTITLE7=David Allan Coe - If That Ain't Country
TTITLE8=Bobby Bare - Yard Full of Rusty Cars
TTITLE9=James Talley - Deep Country Blues
TTITLE10=David Allen Coe, Guy Clark and Larry Jon Wilson - Take It Easy Rider
TTITLE11=Gamble Rogers - The Dekalb Country Sheriff
TTITLE12=Johnny Cash and Ramblin' Jack Elliot - A Cup of Coffee
TTITLE13=Alvin Crow - Dynamite Diana
TTITLE14=The Red Clay Ramblers - Merchants Lunch
TTITLE15=Danny Gatton - Truck Drivin' Romance
TTITLE16=Del Reeves - Girl on the Billboard
TTITLE17=Jaime Brockett and Ramblin' Jack Elliot - A Cup of Coffee
TTITLE18=Lawrence Hammond - Trucker's Nightmare
TTITLE19=Supernatural Family Band - Cattle Truck Drivin' Boogie
TTITLE20=Jerry Riopelle - Red Ball Texas Flyer (Live)
TTITLE21=Bobby Bare - The World's Last Truck Drivin' Man
EXTD=
EXTT0=
EXTT1=
EXTT2=
EXTT3=
EXTT4=
EXTT5=
EXTT6=
EXTT7=
EXTT8=
EXTT9=
EXTT10=
EXTT11=
EXTT12=
EXTT13=
EXTT14=
EXTT15=
EXTT16=
EXTT17=
EXTT18=
EXTT19=
EXTT20=
EXTT21=
PLAYORDER=
